OpenSim_Sub05_CSStiffKnee_RCS.mot
version=1
nRows=103
nColumns=11
inDegrees=no
endheader
time	Top_Thigh	Med_Thigh	Bot_Thigh	Top_Shank	2nd_Top_Shank	2nd_Bot_Shank	Bot_Shank	BNOx	BNOy	BNOZ
84.36000000	1211.54372089	1301.17229639	1278.14662743	1081.73375204	1264.08099186	1020.77191395	1041.49833640	0	0	0
84.37000000	1208.89756580	1299.21415599	1246.30791979	1081.41318731	1263.06894734	1020.61634866	1041.36570291	0	0	0
84.38000000	1206.35233808	1297.05451179	1214.48475622	1080.90164011	1262.01509496	1020.41014291	1041.23222279	0	0	0
84.39000000	1204.08902363	1294.77574991	1185.81664332	1080.17801101	1261.01086003	1020.19829755	1041.11096699	0	0	0
84.40000000	1202.28860839	1292.46025649	1163.44308768	1079.22120059	1260.14766787	1020.02581341	1041.01500644	0	0	0
84.41000000	1201.10543068	1290.19127710	1150.04206976	1078.02095028	1259.50316403	1019.93152950	1040.95561176	0	0	0
84.42000000	1200.49688673	1288.05840910	1144.88060338	1076.64712219	1259.05315289	1019.90874508	1040.93074824	0	0	0
84.43000000	1200.33210267	1286.15409671	1145.69689704	1075.20548875	1258.72779336	1019.93034839	1040.93241767	0	0	0
84.44000000	1200.47978829	1284.57079760	1150.22194786	1073.80199180	1258.45702900	1019.96913134	1040.95259370	0	0	0
84.45000000	1200.80865336	1283.40096945	1156.18675297	1072.54257314	1258.17080340	1019.99788589	1040.98324999	0	0	0
84.46000000	1201.18975232	1282.73328246	1161.37543630	1071.53021884	1257.80097810	1019.99017232	1041.01649460	0	0	0
84.47000000	1201.54806652	1282.56929554	1164.79403738	1070.79993216	1257.32352782	1019.93722280	1041.04752691	0	0	0
84.48000000	1201.86250426	1282.82345625	1166.67051145	1070.31873358	1256.75854047	1019.84794137	1041.07463758	0	0	0
84.49000000	1202.11431849	1283.40642473	1167.28594049	1070.05068782	1256.12802188	1019.73200044	1041.09625170	0	0	0
84.50000000	1202.28476215	1284.22886110	1166.92140649	1069.95985957	1255.45397794	1019.59907240	1041.11079434	0	0	0
84.51000000	1202.35508818	1285.20142550	1165.85799142	1070.01031356	1254.75841448	1019.45882965	1041.11669058	0	0	0
84.52000000	1202.30654954	1286.23477804	1164.37677729	1070.16611449	1254.06333737	1019.32094459	1041.11236550	0	0	0
84.53000000	1202.12039916	1287.23957886	1162.75884606	1070.39132706	1253.39075248	1019.19508961	1041.09624418	0	0	0
84.54000000	1201.77788999	1288.12648808	1161.28527973	1070.65001600	1252.76266565	1019.09093710	1041.06675169	0	0	0
84.55000000	1201.26027498	1288.80616584	1160.23716029	1070.90624600	1252.20108275	1019.01815947	1041.02231312	0	0	0
84.56000000	1200.55525949	1289.19514514	1159.87843577	1071.12246877	1251.72551786	1018.98334406	1040.96190381	0	0	0
84.57000000	1199.74709629	1289.29783469	1160.21667974	1071.23700054	1251.31820082	1018.94691663	1040.89273287	0	0	0
84.58000000	1198.99436050	1289.18629010	1161.06210814	1071.16957800	1250.93265996	1018.83376772	1040.82834775	0	0	0
84.59000000	1198.45753907	1288.93430709	1162.21986022	1070.83945993	1250.52168530	1018.56787372	1040.78245893	0	0	0
84.60000000	1198.29711897	1288.61568137	1163.49507521	1070.16590511	1250.03806689	1018.07321108	1040.76877693	0	0	0
84.61000000	1198.67358715	1288.30420866	1164.69289235	1069.06817230	1249.43459475	1017.27375620	1040.80101223	0	0	0
84.62000000	1199.74743057	1288.07368468	1165.61845086	1067.46552028	1248.66405892	1016.09348551	1040.89287532	0	0	0
84.63000000	1201.67671819	1287.99716935	1166.07820692	1065.27831761	1247.67955315	1014.45741055	1041.05762882	0	0	0
84.64000000	1204.43243750	1288.09079301	1165.98050863	1062.51279873	1246.45767104	1012.37062966	1041.27388140	0	0	0
84.65000000	1207.66845989	1288.27418648	1165.40641791	1059.32074659	1245.01483999	1009.97399396	1041.46150101	0	0	0
84.66000000	1211.00793923	1288.45763310	1164.45372671	1055.86804279	1243.37134593	1007.42150426	1041.53466563	0	0	0
84.67000000	1214.07402938	1288.55141624	1163.22022696	1052.32056889	1241.54747479	1004.86716139	1041.40755323	0	0	0
84.68000000	1216.48988421	1288.46581923	1161.80371057	1048.84420648	1239.56351250	1002.46496618	1040.99434181	0	0	0
84.69000000	1217.87865756	1288.11112544	1160.30196949	1045.60483712	1237.43974497	1000.36891946	1040.20920935	0	0	0
84.70000000	1217.92130799	1287.41507188	1158.81148100	1042.75908705	1235.20710512	998.71854248	1038.98759808	0	0	0
84.71000000	1216.72600673	1286.43438916	1157.41900641	1040.39517950	1232.97521361	997.54634357	1037.42210624	0	0	0
84.72000000	1214.59240299	1285.28362317	1156.20695230	1038.57067935	1230.88895924	996.83686750	1035.67576989	0	0	0
84.73000000	1211.82104922	1284.07759252	1155.25770470	1037.34300683	1229.09339712	996.57443283	1033.91195732	0	0	0
84.74000000	1208.71249782	1282.93111581	1154.65364966	1036.76958218	1227.73358240	996.74335808	1032.29403683	0	0	0
84.75000000	1205.56730123	1281.95901165	1154.47717320	1036.90782565	1226.95457021	997.32796181	1030.98537672	0	0	0
84.76000000	1202.68601187	1281.27609866	1154.81066136	1037.81515748	1226.90141569	998.31256255	1030.14934529	0	0	0
84.77000000	1200.36918217	1280.99719543	1155.73650019	1039.54899790	1227.71917396	999.68147884	1029.94931084	0	0	0
84.78000000	1198.87627169	1281.21428903	1157.31910710	1042.14240082	1229.51670958	1001.40798844	1030.51736656	0	0	0
84.79000000	1198.16303812	1281.85062702	1159.49010037	1045.44833760	1232.13541606	1003.38377069	1031.75446295	0	0	0
84.80000000	1198.04911904	1282.75382743	1162.12157725	1049.23906610	1235.29680560	1005.46393230	1033.45795170	0	0	0
84.81000000	1198.35350997	1283.77115157	1165.08535427	1053.28646342	1238.72182492	1007.50340750	1035.42469582	0	0	0
84.82000000	1198.89520642	1284.74986072	1168.25324792	1057.36240669	1242.13142075	1009.35713046	1037.45155832	0	0	0
84.83000000	1199.49320391	1285.53721617	1171.49707472	1061.23877303	1245.24653980	1010.88003541	1039.33540221	0	0	0
84.84000000	1199.96649796	1285.98047922	1174.68865119	1064.68743957	1247.78812880	1011.92705653	1040.87309050	0	0	0
84.85000000	1200.16748057	1285.95804138	1177.66878552	1067.51647838	1249.52720469	1012.38267257	1041.89787304	0	0	0
84.86000000	1200.12917801	1285.51667066	1180.11056890	1069.72973207	1250.50560314	1012.29116206	1042.43980806	0	0	0
84.87000000	1199.94540826	1284.75980145	1181.63064805	1071.39692901	1250.85630274	1011.75058352	1042.59518878	0	0	0
84.88000000	1199.71003509	1283.79091087	1181.84562713	1072.58784720	1250.71235074	1010.85903596	1042.46035838	0	0	0
84.89000000	1199.51692228	1282.71347601	1180.37211033	1073.37226466	1250.20679442	1009.71461843	1042.13166002	0	0	0
84.90000000	1199.45993360	1281.63097399	1176.82670184	1073.81995938	1249.47268103	1008.41542995	1041.70543685	0	0	0
84.91000000	1199.63293284	1280.64688190	1170.82600582	1074.00070938	1248.64305784	1007.05956955	1041.27803203	0	0	0
84.92000000	1200.12949179	1279.86451559	1161.99132491	1073.98427158	1247.85084032	1005.74506591	1040.94561095	0	0	0
84.93000000	1200.98128015	1279.35300373	1150.94003274	1073.83593326	1247.20100145	1004.55503247	1040.76664992	0	0	0
84.94000000	1202.08185588	1279.10519886	1140.51186892	1073.61100933	1246.73617090	1003.53930482	1040.71553594	0	0	0
84.95000000	1203.30608954	1279.10363288	1133.84727373	1073.36346535	1246.49054287	1002.74321584	1040.75527820	0	0	0
84.96000000	1204.52885167	1279.33083767	1134.08668747	1073.14726690	1246.49831157	1002.21209841	1040.84888587	0	0	0
84.97000000	1205.62501281	1279.76934513	1144.37055042	1073.01637954	1246.79367119	1001.99128540	1040.95936815	0	0	0
84.98000000	1206.47441968	1280.39945617	1167.54747621	1073.02190750	1247.40657791	1002.12178555	1041.05123794	0	0	0
84.99000000	1207.03137705	1281.16808973	1202.09948710	1073.17214038	1248.30357445	1002.57990563	1041.11150852	0	0	0
85	1207.30750764	1281.99646724	1243.14719461	1073.44240907	1249.40238773	1003.29214466	1041.14451402	0	0	0
85.01000000	1207.31590861	1282.80514908	1285.72474315	1073.80719664	1250.61948893	1004.18372045	1041.15503407	0	0	0
85.02000000	1207.06967712	1283.51469564	1324.86627710	1074.24098614	1251.87134927	1005.17985083	1041.14784835	0	0	0
85.03000000	1206.58191032	1284.04566731	1355.60594084	1074.71826066	1253.07443994	1006.20575360	1041.12773650	0	0	0
85.04000000	1205.86570536	1284.31862448	1372.97787876	1075.21350324	1254.14523214	1007.18664657	1041.09947820	0	0	0
85.05000000	1204.93415940	1284.25412755	1372.01623525	1075.70119695	1255.00019708	1008.04774756	1041.06785310	0	0	0
85.06000000	1203.80036958	1283.77273690	1347.75515469	1076.15582487	1255.55580596	1008.71427438	1041.03764085	0	0	0
85.07000000	1202.47743307	1282.79501293	1295.22878148	1076.55187006	1255.72852997	1009.11144484	1041.01362111	0	0	0
85.08000000	1200.97844700	1281.24151603	1209.47126000	1076.86381558	1255.43484033	1009.16447675	1041.00057355	0	0	0
85.09000000	1199.31835820	1279.03816311	1085.77035641	1077.06690903	1254.59390081	1008.80075681	1041.00315469	0	0	0
85.10000000	1197.58401851	1276.31910616	929.27338358	1077.16611943	1253.22954954	1008.03198708	1041.02123390	0	0	0
85.11000000	1195.95568705	1273.48900188	757.93555429	1077.20502497	1251.50160032	1006.97939827	1041.04846196	0	0	0
85.12000000	1194.61986546	1270.97058526	590.56805479	1077.22978414	1249.57895442	1005.77154109	1041.07807401	0	0	0
85.13000000	1193.76305540	1269.18659128	445.98207135	1077.28655543	1247.63051311	1004.53696621	1041.10330520	0	0	0
85.14000000	1193.57175854	1268.55975493	342.98879025	1077.42149736	1245.82517769	1003.40422434	1041.11739069	0	0	0
85.15000000	1194.23247652	1269.51281119	300.39939776	1077.68076841	1244.33184941	1002.50186616	1041.11356562	0	0	0
85.16000000	1195.93171101	1272.46849504	337.02508014	1078.11052708	1243.31942956	1001.95844238	1041.08506514	0	0	0
85.17000000	1198.85596366	1277.84954148	471.67702367	1078.75693187	1242.95681941	1001.90250369	1041.02512441	0	0	0
85.18000000	1203.08105947	1285.92353074	716.48660083	1079.64879195	1243.38519862	1002.44310309	1040.93762638	0	0	0
85.19000000	1207.54024008	1295.35628503	1014.62535721	1080.63580864	1244.45955944	1003.48800709	1040.93637770	0	0	0
85.20000000	1210.56795809	1303.95663952	1272.46159422	1081.47233747	1245.87565380	1004.83220383	1041.19117394	0	0	0
85.21000000	1211.61627294	1310.83742113	1453.88441909	1082.06575957	1247.47061922	1006.35847469	1041.74007400	0	0	0
85.22000000	1211.00428668	1316.12467404	1567.46734370	1082.44230672	1249.19211191	1008.01836585	1042.51908038	0	0	0
85.23000000	1209.07340470	1319.97050592	1622.93331800	1082.63126800	1250.99063104	1009.76519240	1043.46157036	0	0	0
85.24000000	1206.16503240	1322.52702443	1630.00529194	1082.66193247	1252.81667576	1011.55226941	1044.50092122	0	0	0
85.25000000	1202.62057516	1323.94633724	1598.40621546	1082.56358917	1254.62074522	1013.33291196	1045.57051023	0	0	0
85.26000000	1198.78143839	1324.38055201	1537.85903850	1082.36552718	1256.35333859	1015.06043512	1046.60371465	0	0	0
85.27000000	1194.98902747	1323.98177641	1458.08671101	1082.09703555	1257.96495501	1016.68815398	1047.53391177	0	0	0
85.28000000	1191.58474780	1322.90211810	1368.81218294	1081.78740335	1259.40609365	1018.16938360	1048.29447885	0	0	0
85.29000000	1188.91000477	1321.29368474	1279.75840422	1081.46591962	1260.62725365	1019.45743907	1048.81879317	0	0	0
85.30000000	1187.30620378	1319.30858400	1200.64832481	1081.16187344	1261.57893418	1020.50563545	1049.04023199	0	0	0
85.31000000	1187.10741160	1317.09770902	1141.05706392	1080.90410442	1262.21281976	1021.26829876	1048.89379276	0	0	0
85.32000000	1188.36240655	1314.76473864	1104.81282163	1080.70398024	1262.52667607	1021.73905440	1048.37745655	0	0	0
85.33000000	1190.74936711	1312.35201858	1088.27834671	1080.55017192	1262.57812985	1021.96257919	1047.57102242	0	0	0
85.34000000	1193.92170396	1309.89779561	1087.31745929	1080.42983359	1262.42880847	1021.98696176	1046.55975746	0	0	0
85.35000000	1197.53282778	1307.44031648	1097.79397948	1080.33011943	1262.14033927	1021.86029076	1045.42892879	0	0	0
85.36000000	1201.23614924	1305.01782793	1115.57172741	1080.23818357	1261.77434962	1021.63065482	1044.26380350	0	0	0
85.37000000	1204.68507903	1302.66857673	1136.51452318	1080.14118018	1261.39246687	1021.34614258	1043.14964868	0	0	0
85.38000000	1207.53302782	1300.43080962	1156.48618693	1080.02626340	1261.05631838	1021.05484270	1042.17173144	0	0	0
